<svg xmlns="http://www.w3.org/2000/svg" width="1000" height="1200" viewBox="0 0 1000 1200">
<defs>
<linearGradient id="ga2" x1="0" y1="0" x2="1" y2="1"><stop offset="0" stop-color="#1a110d"/><stop offset="1" stop-color="#4a2416"/></linearGradient>
<radialGradient id="sa2" cx=".35" cy=".3" r=".8"><stop offset="0" stop-color="#ffffff" stop-opacity=".95"/><stop offset=".25" stop-color="#ff7a45"/><stop offset="1" stop-color="#1a110d"/></radialGradient>
<filter id="ba2" x="-50%" y="-50%" width="200%" height="200%"><feGaussianBlur stdDeviation="90"/></filter>
<filter id="na2"><feTurbulence type="fractalNoise" baseFrequency=".85" numOctaves="2" stitchTiles="stitch"/><feColorMatrix values="0 0 0 0 1  0 0 0 0 1  0 0 0 0 1  0 0 0 .07 0"/></filter>
</defs>
<rect width="1000" height="1200" fill="url(#ga2)"/>
<g filter="url(#ba2)"><circle cx="561" cy="611" r="398" fill="#ff7a45" opacity="0.71"/><circle cx="55" cy="439" r="370" fill="#ffc46b" opacity="0.72"/><circle cx="515" cy="199" r="392" fill="#ff7a45" opacity="0.50"/><circle cx="424" cy="399" r="436" fill="#ffc46b" opacity="0.44"/></g>
<path d="M371.2989568250715 1200 V486.9046646169875 a210 210 0 0 1 420 0 V1200Z" fill="#ff7a45" opacity="0.92"/><path d="M416.2989568250715 1200 V559.4046646169875 a164.99999999999997 164.99999999999997 0 0 1 329.99999999999994 0 V1200Z" fill="#1a110d" opacity="1"/><path d="M461.2989568250715 1200 V631.9046646169875 a120 120 0 0 1 240 0 V1200Z" fill="#ff4f6d" opacity="0.92"/><path d="M506.2989568250715 1200 V704.4046646169875 a74.99999999999999 74.99999999999999 0 0 1 149.99999999999997 0 V1200Z" fill="#1a110d" opacity="1"/>
<rect width="1000" height="1200" filter="url(#na2)"/>
</svg>